<?xml version="1.0" encoding="UTF-8" standalone="no"?>
<!DOCTYPE svg PUBLIC "-//W3C//DTD SVG 1.1//EN" "http://www.w3.org/Graphics/SVG/1.1/DTD/svg11.dtd">
<svg width="100%" height="100%" viewBox="0 0 32 32" version="1.1" xmlns="http://www.w3.org/2000/svg" xmlns:xlink="http://www.w3.org/1999/xlink" xml:space="preserve" xmlns:serif="http://www.serif.com/" style="fill-rule:evenodd;clip-rule:evenodd;stroke-linejoin:round;stroke-miterlimit:2;">
    <g transform="matrix(1,0,0,1,0,-126)">
        <g id="Icon_Paw_Right" transform="matrix(1.05631,0,0,1.05631,-42.7822,124.601)">
            <rect x="40.501" y="1.324" width="30.294" height="30.294" style="fill:none;"/>
            <g transform="matrix(1.55221e-17,0.253494,-3.24948,1.98973e-16,3422.84,-100.489)">
                <g transform="matrix(1.2384,0,0,0.0923482,-2102.4,864.351)">
                    <ellipse cx="2057.47" cy="1835.2" rx="9.829" ry="12.796" style="fill:currentColor;"/>
                </g>
                <g transform="matrix(1.21242,-0.0196839,0.241196,0.0904111,-2514.04,910.45)">
                    <ellipse cx="2057.47" cy="1835.2" rx="9.829" ry="12.796" style="fill:currentColor;"/>
                </g>
                <g transform="matrix(-1.2384,0,0,0.0923482,3025.19,864.351)">
                    <ellipse cx="2057.47" cy="1835.2" rx="9.829" ry="12.796" style="fill:currentColor;"/>
                </g>
                <g transform="matrix(-1.21242,-0.0196839,-0.241196,0.0904111,3436.82,910.45)">
                    <ellipse cx="2057.47" cy="1835.2" rx="9.829" ry="12.796" style="fill:currentColor;"/>
                </g>
                <g transform="matrix(1,0,0,0.0780108,-1611.7,890.631)">
                    <path d="M2076.72,1909.84C2074.41,1908.82 2071.78,1908.82 2069.47,1909.85C2066.91,1910.98 2063.29,1912.2 2059.55,1912.2C2051.85,1912.2 2043.84,1906.58 2042.14,1899.07C2039.92,1889.2 2043.27,1882.09 2049.31,1877.86C2052.76,1875.35 2055.2,1871.69 2056.18,1867.55C2056.96,1864.67 2058.3,1861.89 2060.62,1859.43C2066.18,1853.5 2073.1,1854.09 2073.1,1854.09C2073.1,1854.09 2080,1853.5 2085.57,1859.43C2087.89,1861.89 2089.23,1864.67 2089.93,1867.56C2090.92,1871.73 2093.37,1875.4 2096.83,1877.92C2102.91,1882.09 2106.27,1889.2 2104.05,1899.07C2102.35,1906.58 2094.34,1912.2 2086.64,1912.2C2082.9,1912.2 2079.28,1910.98 2076.72,1909.84Z" style="fill:currentColor;"/>
                </g>
            </g>
        </g>
    </g>
</svg>
